<svg width="300" height="283" viewBox="0 0 300 283" fill="none" xmlns="http://www.w3.org/2000/svg">
<g filter="url(#filter0_d_0_1)">
<ellipse cx="155" cy="150.5" rx="141" ry="124.5" fill="#FFC453"/>
<path d="M295.5 150.5C295.5 218.927 232.656 274.5 155 274.5C77.3437 274.5 14.5 218.927 14.5 150.5C14.5 82.0734 77.3437 26.5 155 26.5C232.656 26.5 295.5 82.0734 295.5 150.5Z" stroke="white"/>
</g>
<g filter="url(#filter1_f_0_1)">
<path d="M283.5 150.5C283.5 218.927 220.656 274.5 143 274.5C65.3437 274.5 2.5 218.927 2.5 150.5C2.5 82.0734 65.3437 26.5 143 26.5C220.656 26.5 283.5 82.0734 283.5 150.5Z" stroke="#1B1B1B" stroke-opacity="0.75"/>
</g>
<g filter="url(#filter2_f_0_1)">
<ellipse cx="53.3151" cy="198.532" rx="3.5" ry="5" transform="rotate(-10 53.3151 198.532)" fill="#FF9432"/>
</g>
<g filter="url(#filter3_f_0_1)">
<ellipse cx="89.6748" cy="230.735" rx="3.5" ry="5" transform="rotate(-15 89.6748 230.735)" fill="#FF9432"/>
</g>
<g filter="url(#filter4_f_0_1)">
<ellipse cx="133.531" cy="209.08" rx="3.5" ry="5" transform="rotate(-30 133.531 209.08)" fill="#FF9432"/>
</g>
<g filter="url(#filter5_f_0_1)">
<ellipse cx="139.896" cy="250.999" rx="3.5" ry="5" transform="rotate(-70 139.896 250.999)" fill="#FF9432"/>
</g>
<g filter="url(#filter6_f_0_1)">
<ellipse cx="91.6748" cy="192.735" rx="3.5" ry="5" transform="rotate(-15 91.6748 192.735)" fill="#FF9432"/>
</g>
<g filter="url(#filter7_f_0_1)">
<ellipse cx="88.9225" cy="158.286" rx="3.5" ry="5" transform="rotate(-5 88.9225 158.286)" fill="#FF9432"/>
</g>
<g filter="url(#filter8_f_0_1)">
<ellipse cx="61.9225" cy="168.286" rx="3.5" ry="5" transform="rotate(-5 61.9225 168.286)" fill="#FF9432"/>
</g>
<g filter="url(#filter9_f_0_1)">
<ellipse cx="31.9225" cy="152.286" rx="3.5" ry="5" transform="rotate(5 31.9225 152.286)" fill="#FF9432"/>
</g>
<g filter="url(#filter10_f_0_1)">
<ellipse cx="81.5" cy="123" rx="3.5" ry="5" fill="#FF9432"/>
</g>
<g filter="url(#filter11_f_0_1)">
<ellipse cx="77.4631" cy="77.6184" rx="3.5" ry="5" transform="rotate(12 77.4631 77.6184)" fill="#FF9432"/>
</g>
<g filter="url(#filter12_f_0_1)">
<ellipse cx="45.0833" cy="107.389" rx="3.5" ry="5" transform="rotate(7 45.0833 107.389)" fill="#FF9432"/>
</g>
<g filter="url(#filter13_f_0_1)">
<path d="M233.291 4.64865C150.391 -6.29259 135.813 29.1625 138.887 48.2578C215.873 54.2675 233.9 21.6891 233.291 4.64865Z" fill="#23EC5C"/>
<path d="M233.291 4.64865C150.391 -6.29259 135.813 29.1625 138.887 48.2578C215.873 54.2675 233.9 21.6891 233.291 4.64865Z" stroke="black" stroke-opacity="0.5"/>
</g>
<defs>
<filter id="filter0_d_0_1" x="10" y="26" width="290" height="257" filterUnits="userSpaceOnUse" color-interpolation-filters="sRGB">
<feFlood flood-opacity="0" result="BackgroundImageFix"/>
<feColorMatrix in="SourceAlpha" type="matrix" values="0 0 0 0 0 0 0 0 0 0 0 0 0 0 0 0 0 0 127 0" result="hardAlpha"/>
<feOffset dy="4"/>
<feGaussianBlur stdDeviation="2"/>
<feComposite in2="hardAlpha" operator="out"/>
<feColorMatrix type="matrix" values="0 0 0 0 1 0 0 0 0 1 0 0 0 0 1 0 0 0 0.25 0"/>
<feBlend mode="normal" in2="BackgroundImageFix" result="effect1_dropShadow_0_1"/>
<feBlend mode="normal" in="SourceGraphic" in2="effect1_dropShadow_0_1" result="shape"/>
</filter>
<filter id="filter1_f_0_1" x="0.5" y="24.5" width="285" height="252" filterUnits="userSpaceOnUse" color-interpolation-filters="sRGB">
<feFlood flood-opacity="0" result="BackgroundImageFix"/>
<feBlend mode="normal" in="SourceGraphic" in2="BackgroundImageFix" result="shape"/>
<feGaussianBlur stdDeviation="0.75" result="effect1_foregroundBlur_0_1"/>
</filter>
<filter id="filter2_f_0_1" x="47.7597" y="191.57" width="11.1107" height="13.9238" filterUnits="userSpaceOnUse" color-interpolation-filters="sRGB">
<feFlood flood-opacity="0" result="BackgroundImageFix"/>
<feBlend mode="normal" in="SourceGraphic" in2="BackgroundImageFix" result="shape"/>
<feGaussianBlur stdDeviation="1" result="effect1_foregroundBlur_0_1"/>
</filter>
<filter id="filter3_f_0_1" x="84.0539" y="223.821" width="11.2419" height="13.8295" filterUnits="userSpaceOnUse" color-interpolation-filters="sRGB">
<feFlood flood-opacity="0" result="BackgroundImageFix"/>
<feBlend mode="normal" in="SourceGraphic" in2="BackgroundImageFix" result="shape"/>
<feGaussianBlur stdDeviation="1" result="effect1_foregroundBlur_0_1"/>
</filter>
<filter id="filter4_f_0_1" x="127.602" y="202.409" width="11.8583" height="13.3432" filterUnits="userSpaceOnUse" color-interpolation-filters="sRGB">
<feFlood flood-opacity="0" result="BackgroundImageFix"/>
<feBlend mode="normal" in="SourceGraphic" in2="BackgroundImageFix" result="shape"/>
<feGaussianBlur stdDeviation="1" result="effect1_foregroundBlur_0_1"/>
</filter>
<filter id="filter5_f_0_1" x="133.046" y="245.291" width="13.6994" height="11.4154" filterUnits="userSpaceOnUse" color-interpolation-filters="sRGB">
<feFlood flood-opacity="0" result="BackgroundImageFix"/>
<feBlend mode="normal" in="SourceGraphic" in2="BackgroundImageFix" result="shape"/>
<feGaussianBlur stdDeviation="1" result="effect1_foregroundBlur_0_1"/>
</filter>
<filter id="filter6_f_0_1" x="86.0539" y="185.821" width="11.2419" height="13.8295" filterUnits="userSpaceOnUse" color-interpolation-filters="sRGB">
<feFlood flood-opacity="0" result="BackgroundImageFix"/>
<feBlend mode="normal" in="SourceGraphic" in2="BackgroundImageFix" result="shape"/>
<feGaussianBlur stdDeviation="1" result="effect1_foregroundBlur_0_1"/>
</filter>
<filter id="filter7_f_0_1" x="83.4083" y="151.296" width="11.0284" height="13.9809" filterUnits="userSpaceOnUse" color-interpolation-filters="sRGB">
<feFlood flood-opacity="0" result="BackgroundImageFix"/>
<feBlend mode="normal" in="SourceGraphic" in2="BackgroundImageFix" result="shape"/>
<feGaussianBlur stdDeviation="1" result="effect1_foregroundBlur_0_1"/>
</filter>
<filter id="filter8_f_0_1" x="56.4083" y="161.296" width="11.0284" height="13.9809" filterUnits="userSpaceOnUse" color-interpolation-filters="sRGB">
<feFlood flood-opacity="0" result="BackgroundImageFix"/>
<feBlend mode="normal" in="SourceGraphic" in2="BackgroundImageFix" result="shape"/>
<feGaussianBlur stdDeviation="1" result="effect1_foregroundBlur_0_1"/>
</filter>
<filter id="filter9_f_0_1" x="26.4083" y="145.296" width="11.0284" height="13.9809" filterUnits="userSpaceOnUse" color-interpolation-filters="sRGB">
<feFlood flood-opacity="0" result="BackgroundImageFix"/>
<feBlend mode="normal" in="SourceGraphic" in2="BackgroundImageFix" result="shape"/>
<feGaussianBlur stdDeviation="1" result="effect1_foregroundBlur_0_1"/>
</filter>
<filter id="filter10_f_0_1" x="76" y="116" width="11" height="14" filterUnits="userSpaceOnUse" color-interpolation-filters="sRGB">
<feFlood flood-opacity="0" result="BackgroundImageFix"/>
<feBlend mode="normal" in="SourceGraphic" in2="BackgroundImageFix" result="shape"/>
<feGaussianBlur stdDeviation="1" result="effect1_foregroundBlur_0_1"/>
</filter>
<filter id="filter11_f_0_1" x="71.8843" y="70.6732" width="11.1576" height="13.8905" filterUnits="userSpaceOnUse" color-interpolation-filters="sRGB">
<feFlood flood-opacity="0" result="BackgroundImageFix"/>
<feBlend mode="normal" in="SourceGraphic" in2="BackgroundImageFix" result="shape"/>
<feGaussianBlur stdDeviation="1" result="effect1_foregroundBlur_0_1"/>
</filter>
<filter id="filter12_f_0_1" x="39.5557" y="100.408" width="11.0551" height="13.9626" filterUnits="userSpaceOnUse" color-interpolation-filters="sRGB">
<feFlood flood-opacity="0" result="BackgroundImageFix"/>
<feBlend mode="normal" in="SourceGraphic" in2="BackgroundImageFix" result="shape"/>
<feGaussianBlur stdDeviation="1" result="effect1_foregroundBlur_0_1"/>
</filter>
<filter id="filter13_f_0_1" x="136.514" y="0.596008" width="98.7911" height="50.3916" filterUnits="userSpaceOnUse" color-interpolation-filters="sRGB">
<feFlood flood-opacity="0" result="BackgroundImageFix"/>
<feBlend mode="normal" in="SourceGraphic" in2="BackgroundImageFix" result="shape"/>
<feGaussianBlur stdDeviation="0.75" result="effect1_foregroundBlur_0_1"/>
</filter>
</defs>
</svg>
